<svg width="31" height="31" viewBox="0 0 31 31" fill="none" xmlns="http://www.w3.org/2000/svg">
<path d="M9.34305 23.6289C9.70293 23.5516 10.034 23.3752 10.2988 23.1195C10.5636 22.8638 10.7515 22.5391 10.8414 22.1822C11.3064 22.0616 11.7542 21.9066 12.2105 21.743V20.7097C12.2141 20.562 12.2314 20.415 12.2622 20.2705C11.75 20.4772 11.2268 20.6554 10.695 20.8044C10.5092 20.4366 10.2123 20.1366 9.84648 19.9469C9.48065 19.7571 9.0644 19.6873 8.65669 19.7474C8.24899 19.8074 7.8705 19.9942 7.57486 20.2812C7.27921 20.5683 7.0814 20.9412 7.00944 21.3469H6.62194C5.11543 19.598 4.24181 17.3928 4.14194 15.0866C5.29915 13.4647 6.76165 12.0841 8.44749 11.0222C8.69831 11.2788 9.016 11.46 9.36453 11.5452C9.71307 11.6304 10.0785 11.6163 10.4194 11.5044C11.4298 13.1619 12.7342 14.621 14.2686 15.81C14.3248 15.7376 14.3852 15.6686 14.4494 15.6033L15.2675 14.8197C13.7649 13.6989 12.493 12.2983 11.5217 10.695C11.7168 10.3855 11.8213 10.0275 11.823 9.66165V9.4722C14.9714 8.4142 18.3794 8.4142 21.5278 9.4722C21.2956 10.4619 20.9638 11.4255 20.5375 12.3483H22.0444C22.3643 11.5884 22.6262 10.8055 22.828 10.0061C23.1983 10.1697 23.5514 10.3591 23.913 10.5572C24.4064 11.6709 24.698 12.8634 24.7742 14.0791C25.0989 13.8974 25.4616 13.7942 25.8333 13.7778C26.0314 13.7817 26.2281 13.8106 26.4189 13.8639C26.2669 11.5411 25.4457 9.312 24.0544 7.44576C22.6632 5.57952 20.7614 4.15596 18.5788 3.34699C16.3962 2.53801 14.026 2.37822 11.7545 2.88692C9.48302 3.39561 7.40738 4.55103 5.77825 6.21364C4.14911 7.87625 3.03614 9.97496 2.57375 12.2563C2.11135 14.5377 2.31931 16.9041 3.17251 19.0698C4.0257 21.2356 5.48765 23.108 7.38179 24.461C9.27594 25.814 11.5213 26.5897 13.8467 26.6944C13.6279 26.1412 13.6279 25.5254 13.8467 24.9722C12.2618 24.8784 10.7203 24.4186 9.34305 23.6289ZM14.4322 4.30554C15.8161 4.30763 17.1855 4.58768 18.4591 5.12907C19.7327 5.67046 20.8846 6.46217 21.8464 7.4572C21.8464 7.67248 21.8464 7.89637 21.7775 8.11165C18.3188 6.97175 14.5806 7.00505 11.1428 8.20637C10.8505 7.9563 10.4912 7.7976 10.1094 7.74998C9.87893 7.03827 9.70333 6.30993 9.58416 5.57137C11.0708 4.75542 12.7364 4.32052 14.4322 4.30554ZM8.31833 6.33776C8.42969 6.89593 8.57053 7.44782 8.74027 7.99109C8.45858 8.16748 8.22627 8.41249 8.06511 8.70317C7.90396 8.99384 7.81924 9.32068 7.81888 9.65304C7.81888 9.65304 7.81888 9.73915 7.81888 9.7822C6.51778 10.6008 5.33557 11.5947 4.30555 12.7358C4.78795 10.1732 6.22137 7.88774 8.31833 6.33776Z" fill="black"/>
<path d="M21.5278 18.247C20.8742 18.2538 20.2373 18.4542 19.6975 18.8228C19.1578 19.1914 18.7393 19.7117 18.4951 20.318C18.2509 20.9242 18.1919 21.5893 18.3254 22.2291C18.459 22.869 18.7792 23.4548 19.2455 23.9128C19.7119 24.3708 20.3035 24.6802 20.9457 24.8021C21.5878 24.924 22.2517 24.8528 22.8534 24.5976C23.4552 24.3424 23.9678 23.9146 24.3265 23.3682C24.6852 22.8218 24.874 22.1814 24.8689 21.5278C24.8553 20.6515 24.497 19.8157 23.8717 19.2017C23.2463 18.5876 22.4042 18.2446 21.5278 18.247ZM21.5278 23.4825C21.1489 23.4757 20.7805 23.3575 20.4684 23.1426C20.1563 22.9277 19.9145 22.6256 19.773 22.2741C19.6315 21.9226 19.5967 21.5372 19.6729 21.166C19.7491 20.7949 19.9329 20.4544 20.2015 20.187C20.47 19.9197 20.8113 19.7373 21.1828 19.6628C21.5543 19.5882 21.9395 19.6247 22.2904 19.7677C22.6413 19.9107 22.9423 20.1539 23.1558 20.4669C23.3694 20.7799 23.486 21.1489 23.4911 21.5278C23.4923 21.7855 23.4422 22.0409 23.3438 22.2792C23.2455 22.5174 23.1007 22.7338 22.9181 22.9156C22.7354 23.0975 22.5185 23.2412 22.2798 23.3385C22.0411 23.4359 21.7855 23.4848 21.5278 23.4825Z" fill="black"/>
<path d="M29.4242 20.7873C29.4326 20.5867 29.3793 20.3883 29.2716 20.219C29.1638 20.0496 29.0067 19.9173 28.8214 19.84L27.4781 19.4439C27.4149 19.2602 27.3403 19.0794 27.2542 18.9014L27.8742 17.7561C27.9716 17.5698 28.0066 17.3571 27.974 17.1494C27.9415 16.9416 27.8431 16.7499 27.6933 16.6023L26.5394 15.4656C26.3908 15.3172 26.1986 15.2205 25.9909 15.1895C25.7832 15.1585 25.571 15.1949 25.3856 15.2934L24.2317 15.9048C24.0435 15.8148 23.8509 15.7344 23.6547 15.6636L23.25 14.3892C23.1821 14.1971 23.0561 14.0309 22.8894 13.9136C22.7228 13.7963 22.5238 13.7338 22.32 13.7348H20.6667C20.4587 13.7362 20.2565 13.8038 20.0894 13.9276C19.9222 14.0514 19.7987 14.2251 19.7367 14.4236L19.3578 15.655C19.1587 15.7255 18.9632 15.806 18.7722 15.8961L17.6356 15.2934C17.4519 15.1958 17.2421 15.1591 17.0363 15.1885C16.8304 15.2179 16.6393 15.3119 16.4903 15.457L15.3106 16.585C15.1589 16.7333 15.0593 16.9266 15.0267 17.1362C14.9941 17.3457 15.0303 17.5602 15.1297 17.7475L15.7325 18.8498C15.6407 19.0335 15.5603 19.22 15.4914 19.4095L14.2772 19.8056C14.0749 19.8653 13.8976 19.9891 13.7718 20.1584C13.646 20.3277 13.5786 20.5333 13.5797 20.7442V22.3545C13.5895 22.5587 13.6628 22.7548 13.7894 22.9153C13.916 23.0759 14.0895 23.1929 14.2858 23.25L15.5517 23.6289C15.6206 23.8126 15.7009 23.9963 15.7928 24.18L15.1728 25.3425C15.0722 25.5289 15.0347 25.7429 15.0657 25.9524C15.0968 26.1619 15.1947 26.3558 15.345 26.505L16.4989 27.6417C16.6475 27.79 16.8398 27.8868 17.0475 27.9178C17.2552 27.9488 17.4673 27.9124 17.6528 27.8139L18.8325 27.1939C19.0105 27.2743 19.1913 27.3489 19.375 27.4178L19.7539 28.6836C19.8164 28.8836 19.9412 29.0583 20.11 29.1823C20.2789 29.3062 20.483 29.3729 20.6925 29.3725H22.3286C22.5351 29.3692 22.7354 29.3009 22.9008 29.1772C23.0662 29.0535 23.1884 28.8808 23.25 28.6836L23.6289 27.4178C23.8097 27.3575 23.9906 27.28 24.1628 27.2025L25.3511 27.8311C25.5356 27.9276 25.746 27.9629 25.9519 27.9319C26.1577 27.901 26.3484 27.8054 26.4964 27.6589L27.6503 26.5223C27.802 26.374 27.9015 26.1807 27.9341 25.9711C27.9667 25.7615 27.9306 25.5471 27.8311 25.3598L27.2025 24.2059C27.2829 24.0336 27.3546 23.8614 27.4178 23.6892L28.7094 23.3103C28.9121 23.2545 29.0913 23.1346 29.2201 22.9685C29.349 22.8024 29.4205 22.5991 29.4242 22.3889V20.7873ZM28.0464 22.0789L26.3242 22.5784L26.2208 22.94C26.1254 23.2658 25.9955 23.5804 25.8333 23.8786L25.6525 24.2059L26.5136 25.7473L25.7731 26.4706L24.2058 25.6095L23.8872 25.7817C23.5805 25.9471 23.2572 26.0799 22.9228 26.1778L22.5611 26.2811L22.0531 28.0034H20.9939L20.4858 26.3242L20.1242 26.2209C19.7873 26.1258 19.4611 25.9959 19.1511 25.8334L18.8325 25.6611L17.2739 26.5223L16.5333 25.7903L17.3944 24.2231L17.205 23.8959C17.029 23.588 16.8875 23.2617 16.7831 22.9228L16.6711 22.5698L14.9919 22.0703V21.0284L16.6625 20.5289L16.7658 20.1759C16.8692 19.8338 17.0108 19.5046 17.1878 19.1942L17.3772 18.8584L16.5161 17.3686L17.2653 16.6453L18.7894 17.4548L19.1167 17.2739C19.4361 17.0969 19.7739 16.9554 20.1242 16.852L20.4772 16.7486L20.9853 15.1039H22.0444L22.5439 16.74L22.8969 16.8434C23.2439 16.9445 23.5788 17.0831 23.8958 17.2567L24.2231 17.4375L25.7731 16.6195L26.5136 17.3514L25.6525 18.8756L25.8333 19.2028C26.0038 19.5112 26.1396 19.8375 26.2381 20.1759L26.3414 20.5375L28.0033 21.0284L28.0464 22.0789Z" fill="black"/>
</svg>
