<svg width="25" height="25" viewBox="0 0 25 25" fill="none" xmlns="http://www.w3.org/2000/svg">
<path d="M6.88853 2.04984C7.87739 1.30094 9.08458 0.897015 10.325 0.899993C10.7534 0.890387 11.1773 0.988992 11.5575 1.18669C11.9377 1.38438 12.2619 1.67477 12.5 2.03099C12.7382 1.67477 13.0624 1.38438 13.4425 1.18669C13.8227 0.988992 14.2466 0.890387 14.675 0.899993C15.9155 0.897015 17.1227 1.30094 18.1115 2.04984C18.8728 2.64144 19.46 3.46069 19.6674 4.45104C20.143 4.48729 20.578 4.68449 20.9434 4.98174C21.4973 5.43124 21.9004 6.10549 22.1541 6.81889C22.5514 7.92814 22.6587 9.34189 22.2469 10.5454C22.3513 10.5947 22.4543 10.6527 22.5543 10.7194C22.9531 10.9847 23.2561 11.3646 23.4794 11.8127C23.9188 12.6899 24.1 13.9137 24.1 15.4C24.1 17.0544 23.4693 18.1651 22.6689 18.851C22.2263 19.2305 21.7039 19.5055 21.1406 19.6557C20.9956 20.4648 20.5896 21.4015 19.953 22.1961C19.1265 23.2329 17.8447 24.1 16.125 24.1C14.762 24.1 13.6774 23.346 12.9727 22.6065C12.8042 22.4299 12.6464 22.2435 12.5 22.0482C12.3537 22.2435 12.1958 22.4299 12.0273 22.6065C11.3226 23.346 10.2395 24.1 8.87502 24.1C7.15532 24.1 5.87497 23.2329 5.04702 22.1961C4.45218 21.4575 4.04475 20.5859 3.85947 19.6557C3.29612 19.5055 2.77379 19.2305 2.33117 18.851C1.53077 18.1651 0.900024 17.053 0.900024 15.4C0.900024 13.9137 1.08272 12.6885 1.52062 11.8127C1.72816 11.3733 2.0471 10.9959 2.44572 10.7179C2.54365 10.6531 2.64642 10.5959 2.75312 10.5468C2.34132 9.34044 2.44862 7.92814 2.84592 6.81889C3.09967 6.10549 3.50277 5.43124 4.05667 4.98174C4.42207 4.68449 4.85707 4.48874 5.33267 4.45104C5.54147 3.46069 6.12872 2.64144 6.88997 2.04984H6.88853ZM11.775 4.52499V4.51049L11.7721 4.43799C11.7508 4.05998 11.6756 3.68696 11.5488 3.33019C11.4586 3.06087 11.3049 2.81719 11.1008 2.61969C10.8866 2.43319 10.6087 2.33658 10.325 2.34999C9.40709 2.34685 8.51317 2.64312 7.77882 3.19389C7.10602 3.71734 6.70002 4.42639 6.70002 5.24999C6.69994 5.36481 6.67258 5.47796 6.62021 5.58014C6.56784 5.68232 6.49195 5.77059 6.39879 5.8377C6.30563 5.90481 6.19786 5.94884 6.08435 5.96615C5.97085 5.98347 5.85486 5.97358 5.74592 5.93729C5.47332 5.84739 5.22972 5.89814 4.97017 6.10694C4.68597 6.33894 4.40902 6.75074 4.21037 7.30609C3.80582 8.43999 3.84787 9.81314 4.40322 10.6483C4.48254 10.7673 4.52491 10.907 4.52502 11.05H5.61252C6.47779 11.05 7.30762 11.3937 7.91946 12.0056C8.5313 12.6174 8.87502 13.4472 8.87502 14.3125V14.7982C9.35876 14.9693 9.76645 15.3058 10.0261 15.7483C10.2857 16.1909 10.3805 16.711 10.2937 17.2167C10.2069 17.7223 9.9442 18.1811 9.55193 18.5118C9.15965 18.8425 8.6631 19.0239 8.15002 19.0239C7.63695 19.0239 7.1404 18.8425 6.74812 18.5118C6.35585 18.1811 6.09311 17.7223 6.00635 17.2167C5.91959 16.711 6.01439 16.1909 6.27399 15.7483C6.5336 15.3058 6.94129 14.9693 7.42502 14.7982V14.3125C7.42502 13.312 6.61302 12.5 5.61252 12.5H3.07502C2.98834 12.4999 2.9024 12.4841 2.82127 12.4536L2.81692 12.4623C2.52982 13.035 2.35002 13.9862 2.35002 15.4C2.35002 16.6455 2.80677 17.3473 3.27512 17.749C3.77827 18.1811 4.33652 18.3 4.52502 18.3C4.71731 18.3 4.90171 18.3764 5.03768 18.5123C5.17364 18.6483 5.25002 18.8327 5.25002 19.025C5.25002 19.5586 5.54002 20.4909 6.17802 21.2913C6.80007 22.0671 7.69472 22.65 8.87502 22.65C9.68703 22.65 10.4149 22.1961 10.9775 21.606C11.2545 21.316 11.4705 21.0158 11.6112 20.7693C11.6752 20.66 11.73 20.5456 11.775 20.4271V8.87499H10.2018C10.0308 9.35872 9.69422 9.76642 9.25168 10.026C8.80913 10.2856 8.28905 10.3804 7.78337 10.2937C7.27768 10.2069 6.81895 9.94417 6.48825 9.5519C6.15755 9.15962 5.97616 8.66307 5.97616 8.14999C5.97616 7.63692 6.15755 7.14037 6.48825 6.74809C6.81895 6.35582 7.27768 6.09308 7.78337 6.00632C8.28905 5.91955 8.80913 6.01435 9.25168 6.27396C9.69422 6.53357 10.0308 6.94126 10.2018 7.42499H11.775V4.52499ZM13.225 19.0235V20.4257C13.2701 20.5441 13.3249 20.6586 13.3889 20.7679C13.531 21.0144 13.7456 21.3145 14.0211 21.6045C14.5851 22.1947 15.3145 22.6485 16.125 22.6485C17.3053 22.6485 18.2 22.0656 18.822 21.2899C19.46 20.4895 19.75 19.5571 19.75 19.0235C19.75 18.8313 19.8264 18.6469 19.9624 18.5109C20.0983 18.3749 20.2827 18.2985 20.475 18.2985C20.6635 18.2985 21.2218 18.1796 21.7249 17.7475C22.1933 17.3459 22.65 16.6441 22.65 15.3985C22.65 13.9848 22.4688 13.035 22.1831 12.4608C22.0876 12.247 21.9376 12.062 21.7481 11.9243C21.5849 11.82 21.3937 11.7679 21.2 11.775C21.0689 11.7749 20.9402 11.7393 20.8277 11.6719C20.7152 11.6045 20.6231 11.5078 20.5612 11.3922C20.4993 11.2766 20.47 11.1463 20.4762 11.0154C20.4825 10.8844 20.5242 10.7575 20.5968 10.6483C21.1536 9.81314 21.1942 8.43999 20.7897 7.30609C20.591 6.75074 20.3141 6.33749 20.0299 6.10694C19.7703 5.89814 19.5267 5.84594 19.2541 5.93729C19.1452 5.97358 19.0292 5.98347 18.9157 5.96615C18.8022 5.94884 18.6944 5.90481 18.6013 5.8377C18.5081 5.77059 18.4322 5.68232 18.3798 5.58014C18.3275 5.47796 18.3001 5.36481 18.3 5.24999C18.3 4.42639 17.894 3.71734 17.2198 3.19389C16.4858 2.64342 15.5925 2.34716 14.675 2.34999C14.3913 2.33658 14.1134 2.43319 13.8993 2.61969C13.6945 2.81696 13.5403 3.06068 13.4498 3.33019C13.3117 3.70894 13.2358 4.10752 13.225 4.51049V17.575H14.3125C15.313 17.575 16.125 16.763 16.125 15.7625V13.1017C15.6413 12.9307 15.2336 12.5942 14.974 12.1516C14.7144 11.7091 14.6196 11.189 14.7063 10.6833C14.7931 10.1777 15.0558 9.71892 15.4481 9.38822C15.8404 9.05751 16.337 8.87613 16.85 8.87613C17.3631 8.87613 17.8597 9.05751 18.2519 9.38822C18.6442 9.71892 18.9069 10.1777 18.9937 10.6833C19.0805 11.189 18.9857 11.7091 18.7261 12.1516C18.4665 12.5942 18.0588 12.9307 17.575 13.1017V15.7625C17.575 16.6278 17.2313 17.4576 16.6195 18.0694C16.0076 18.6813 15.1778 19.025 14.3125 19.025H13.225V19.0235ZM7.42502 8.14999C7.42502 8.34228 7.50141 8.52668 7.63737 8.66265C7.77334 8.79861 7.95774 8.87499 8.15002 8.87499C8.34231 8.87499 8.52671 8.79861 8.66268 8.66265C8.79864 8.52668 8.87502 8.34228 8.87502 8.14999C8.87502 7.95771 8.79864 7.7733 8.66268 7.63734C8.52671 7.50138 8.34231 7.42499 8.15002 7.42499C7.95774 7.42499 7.77334 7.50138 7.63737 7.63734C7.50141 7.7733 7.42502 7.95771 7.42502 8.14999ZM16.85 11.775C17.0423 11.775 17.2267 11.6986 17.3627 11.5626C17.4986 11.4267 17.575 11.2423 17.575 11.05C17.575 10.8577 17.4986 10.6733 17.3627 10.5373C17.2267 10.4014 17.0423 10.325 16.85 10.325C16.6577 10.325 16.4733 10.4014 16.3374 10.5373C16.2014 10.6733 16.125 10.8577 16.125 11.05C16.125 11.2423 16.2014 11.4267 16.3374 11.5626C16.4733 11.6986 16.6577 11.775 16.85 11.775ZM8.15002 16.125C7.95774 16.125 7.77334 16.2014 7.63737 16.3373C7.50141 16.4733 7.42502 16.6577 7.42502 16.85C7.42502 17.0423 7.50141 17.2267 7.63737 17.3626C7.77334 17.4986 7.95774 17.575 8.15002 17.575C8.34231 17.575 8.52671 17.4986 8.66268 17.3626C8.79864 17.2267 8.87502 17.0423 8.87502 16.85C8.87502 16.6577 8.79864 16.4733 8.66268 16.3373C8.52671 16.2014 8.34231 16.125 8.15002 16.125Z" fill="black"/>
</svg>
